<svg xmlns="http://www.w3.org/2000/svg" viewBox="155.2 21.6 202 261.4" fill="none" xmlns:c2pa="http://c2pa.org/manifest"><metadata><c2pa:manifest>AAAWgmp1bWIAAAAeanVtZGMycGEAEQAQgAAAqgA4m3EDYzJwYQAAABZcanVtYgAAAEdqdW1kYzJtYQARABCAAACqADibcQN1cm46YzJwYTo4NzRkNzZiMi0wYjQ3LTRkZTktYTQ4ZS0xYWRjYmQ2OTBkMzAAAAADl2p1bWIAAAApanVtZGMyYXMAEQAQgAAAqgA4m3EDYzJwYS5hc3NlcnRpb25zAAAAALxqdW1iAAAARGp1bWRjYm9yABEAEIAAAKoAOJtxE2MycGEuaW5ncmVkaWVudC52MwAAAAAYYzJzaAICMtzTTdAwXEJJQKXhtrMAAABwY2JvcqNpZGM6Zm9ybWF0bWltYWdlL3N2Zyt4bWxqaW5zdGFuY2VJRHgseG1wOmlpZDo5MTIyMTAzZi1jNTdjLTRmMDYtOGIyZi1mN2I2OWY2ZDhkNDlscmVsYXRpb25zaGlwaHBhcmVudE9mAAAB4mp1bWIAAABBanVtZGNib3IAEQAQgAAAqgA4m3ETYzJwYS5hY3Rpb25zLnYyAAAAABhjMnNoqIRDbbf1Qg775VO9EbGUzwAAAZljYm9yomdhY3Rpb25zgqJmYWN0aW9ua2MycGEub3BlbmVkanBhcmFtZXRlcnOha2luZ3JlZGllbnRzgaJjdXJseC1zZWxmI2p1bWJmPWMycGEuYXNzZXJ0aW9ucy9jMnBhLmluZ3JlZGllbnQudjNkaGFzaFgg17NZHAC3FHBUSTrytP3w2VqL8K+e8pPuzeXY9y6YHnikZmFjdGlvbngdY29tLmFudGhyb3BpYy5jbGF1ZGUucHJvdmlkZWRqcGFyYW1ldGVyc6F4H2NvbS5hbnRocm9waWMub3JpZ2luLWNvbmZpZGVuY2VndW5rbm93bmtkZXNjcmlwdGlvbnhmQ2xhdWRlIHByb3ZpZGVkIHRoaXMgZmlsZSBhdCB0aGUgcmVxdWVzdCBvZiBhIHVzZXIgYW5kIG1heSBoYXZlIGNyZWF0ZWQgb3IgbW9kaWZpZWQgdGhlIGZpbGUgY29udGVudHMubXNvZnR3YXJlQWdlbnShZG5hbWVmQ2xhdWRlcmFsbEFjdGlvbnNJbmNsdWRlZPUAAADIanVtYgAAAEBqdW1kY2JvcgARABCAAACqADibcRNjMnBhLmhhc2guZGF0YQAAAAAYYzJzaGT55b869QeSBeToukhC0s8AAACAY2JvcqVjYWxnZnNoYTI1NmNwYWRNAAAAAAAAAAAAAAAAAGRoYXNoWCAxpJez8BZQ33QIoDdKNbssl1unHRN+InT4PGY8sSqpK2RuYW1lbmp1bWJmIG1hbmlmZXN0amV4Y2x1c2lvbnOBomVzdGFydBiSZmxlbmd0aBkeBAAAAj5qdW1iAAAAJ2p1bWRjMmNsABEAEIAAAKoAOJtxA2MycGEuY2xhaW0udjIAAAACD2Nib3KlY2FsZ2ZzaGEyNTZpc2lnbmF0dXJleE1zZWxmI2p1bWJmPS9jMnBhL3VybjpjMnBhOjg3NGQ3NmIyLTBiNDctNGRlOS1hNDhlLTFhZGNiZDY5MGQzMC9jMnBhLnNpZ25hdHVyZWppbnN0YW5jZUlEeCx4bXA6aWlkOjUxZjk1Y2Q3LTAzOTUtNGVkNy05MTdmLWZiODZmYWM2ZmM4NHJjcmVhdGVkX2Fzc2VydGlvbnODomN1cmx4LXNlbGYjanVtYmY9YzJwYS5hc3NlcnRpb25zL2MycGEuaW5ncmVkaWVudC52M2RoYXNoWCDXs1kcALcUcFRJOvK0/fDZWovwr57yk+7N5dj3LpgeeKJjdXJseCpzZWxmI2p1bWJmPWMycGEuYXNzZXJ0aW9ucy9jMnBhLmFjdGlvbnMudjJkaGFzaFggOgw8CCAObQ4mSzoGMV3PNkthsWDZ2aqusWBrWNwml+WiY3VybHgpc2VsZiNqdW1iZj1jMnBhLmFzc2VydGlvbnMvYzJwYS5oYXNoLmRhdGFkaGFzaFggYwp5wl6j8ksDb5uQuelFhoP5ttzQGV4YLosk6I8SZpZ0Y2xhaW1fZ2VuZXJhdG9yX2luZm+jZG5hbWVvQW50aHJvcGljIEZpbGVzZ3ZlcnNpb25lMS4wLjBrc3BlY1ZlcnNpb25lMi40LjAAABA4anVtYgAAAChqdW1kYzJjcwARABCAAACqADibcQNjMnBhLnNpZ25hdHVyZQAAABAIY2JvctKEWQISogEmGCFZAgowggIGMIIBjaADAgECAhRA5aAK7sI50L64g/oGQgU9Z1UTADAKBggqhkjOPQQDAzBJMRcwFQYDVQQKEw5BbnRocm9waWMsIFBCQzEuMCwGA1UEAxMlQW50aHJvcGljIENvbnRlbnQgQ3JlZGVudGlhbHMgUm9vdCBDQTAeFw0yNjA4MDcxODQzNTZaFw0yODA4MDYxOTQzNTZaMEQxFzAVBgNVBAoTDkFudGhyb3BpYywgUEJDMSkwJwYDVQQDEyBBbnRocm9waWMgQ2xhdWRlIENvbnRlbnQgU2lnbmluZzBZMBMGByqGSM49AgEGCCqGSM49AwEHA0IABJh6CmvLUBgFFNU0vUKlOVtE6djd17L5SuwX0LemFisBM3dkd/3cyjxFA3Qo5S46fX0/ihY0VZ7mfb9KF703t5OjWDBWMA4GA1UdDwEB/wQEAwIHgDAVBgNVHSUEDjAMBgorBgEEAYPoXgIBMAwGA1UdEwEB/wQCMAAwHwYDVR0jBBgwFoAUzlHiBIFOZFsj+OPEz5o+nMHXXMIwCgYIKoZIzj0EAwMDZwAwZAIwMXMdFJ4BetLLVY7ORuE9noqbbAZOZn/aArXyTwFAZfKrPzxF2vPoJNf1+UCdg1XGAjBwX1zd9WGqYkqmL5SFqw1QySjr1zJfpJM9+1rdDwSPLMOPOjKuiXjoU/pUUeG9RwmhY3BhZFkNngAAAAAAAAAAAAAAAAAAAAAAAAAAAAAAAAAAAAAAAAAAAAAAAAAAAAAAAAAAAAAAAAAAAAAAAAAAAAAAAAAAAAAAAAAAAAAAAAAAAAAAAAAAAAAAAAAAAAAAAAAAAAAAAAAAAAAAAAAAAAAAAAAAAAAAAAAAAAAAAAAAAAAAAAAAAAAAAAAAAAAAAAAAAAAAAAAAAAAAAAAAAAAAAAAAAAAAAAAAAAAAAAAAAAAAAAAAAAAAAAAAAAAAAAAAAAAAAAAAAAAAAAAAAAAAAAAAAAAAAAAAAAAAAAAAAAAAAAAAAAAAAAAAAAAAAAAAAAAAAAAAAAAAAAAAAAAAAAAAAAAAAAAAAAAAAAAAAAAAAAAAAAAAAAAAAAAAAAAAAAAAAAAAAAAAAAAAAAAAAAAAAAAAAAAAAAAAAAAAAAAAAAAAAAAAAAAAAAAAAAAAAAAAAAAAAAAAAAAAAAAAAAAAAAAAAAAAAAAAAAAAAAAAAAAAAAAAAAAAAAAAAAAAAAAAAAAAAAAAAAAAAAAAAAAAAAAAAAAAAAAAAAAAAAAAAAAAAAAAAAAAAAAAAAAAAAAAAAAAAAAAAAAAAAAAAAAAAAAAAAAAAAAAAAAAAAAAAAAAAAAAAAAAAAAAAAAAAAAAAAAAAAAAAAAAAAAAAAAAAAAAAAAAAAAAAAAAAAAAAAAAAAAAAAAAAAAAAAAAAAAAAAAAAAAAAAAAAAAAAAAAAAAAAAAAAAAAAAAAAAAAAAAAAAAAAAAAAAAAAAAAAAAAAAAAAAAAAAAAAAAAAAAAAAAAAAAAAAAAAAAAAAAAAAAAAAAAAAAAAAAAAAAAAAAAAAAAAAAAAAAAAAAAAAAAAAAAAAAAAAAAAAAAAAAAAAAAAAAAAAAAAAAAAAAAAAAAAAAAAAAAAAAAAAAAAAAAAAAAAAAAAAAAAAAAAAAAAAAAAAAAAAAAAAAAAAAAAAAAAAAAAAAAAAAAAAAAAAAAAAAAAAAAAAAAAAAAAAAAAAAAAAAAAAAAAAAAAAAAAAAAAAAAAAAAAAAAAAAAAAAAAAAAAAAAAAAAAAAAAAAAAAAAAAAAAAAAAAAAAAAAAAAAAAAAAAAAAAAAAAAAAAAAAAAAAAAAAAAAAAAAAAAAAAAAAAAAAAAAAAAAAAAAAAAAAAAAAAAAAAAAAAAAAAAAAAAAAAAAAAAAAAAAAAAAAAAAAAAAAAAAAAAAAAAAAAAAAAAAAAAAAAAAAAAAAAAAAAAAAAAAAAAAAAAAAAAAAAAAAAAAAAAAAAAAAAAAAAAAAAAAAAAAAAAAAAAAAAAAAAAAAAAAAAAAAAAAAAAAAAAAAAAAAAAAAAAAAAAAAAAAAAAAAAAAAAAAAAAAAAAAAAAAAAAAAAAAAAAAAAAAAAAAAAAAAAAAAAAAAAAAAAAAAAAAAAAAAAAAAAAAAAAAAAAAAAAAAAAAAAAAAAAAAAAAAAAAAAAAAAAAAAAAAAAAAAAAAAAAAAAAAAAAAAAAAAAAAAAAAAAAAAAAAAAAAAAAAAAAAAAAAAAAAAAAAAAAAAAAAAAAAAAAAAAAAAAAAAAAAAAAAAAAAAAAAAAAAAAAAAAAAAAAAAAAAAAAAAAAAAAAAAAAAAAAAAAAAAAAAAAAAAAAAAAAAAAAAAAAAAAAAAAAAAAAAAAAAAAAAAAAAAAAAAAAAAAAAAAAAAAAAAAAAAAAAAAAAAAAAAAAAAAAAAAAAAAAAAAAAAAAAAAAAAAAAAAAAAAAAAAAAAAAAAAAAAAAAAAAAAAAAAAAAAAAAAAAAAAAAAAAAAAAAAAAAAAAAAAAAAAAAAAAAAAAAAAAAAAAAAAAAAAAAAAAAAAAAAAAAAAAAAAAAAAAAAAAAAAAAAAAAAAAAAAAAAAAAAAAAAAAAAAAAAAAAAAAAAAAAAAAAAAAAAAAAAAAAAAAAAAAAAAAAAAAAAAAAAAAAAAAAAAAAAAAAAAAAAAAAAAAAAAAAAAAAAAAAAAAAAAAAAAAAAAAAAAAAAAAAAAAAAAAAAAAAAAAAAAAAAAAAAAAAAAAAAAAAAAAAAAAAAAAAAAAAAAAAAAAAAAAAAAAAAAAAAAAAAAAAAAAAAAAAAAAAAAAAAAAAAAAAAAAAAAAAAAAAAAAAAAAAAAAAAAAAAAAAAAAAAAAAAAAAAAAAAAAAAAAAAAAAAAAAAAAAAAAAAAAAAAAAAAAAAAAAAAAAAAAAAAAAAAAAAAAAAAAAAAAAAAAAAAAAAAAAAAAAAAAAAAAAAAAAAAAAAAAAAAAAAAAAAAAAAAAAAAAAAAAAAAAAAAAAAAAAAAAAAAAAAAAAAAAAAAAAAAAAAAAAAAAAAAAAAAAAAAAAAAAAAAAAAAAAAAAAAAAAAAAAAAAAAAAAAAAAAAAAAAAAAAAAAAAAAAAAAAAAAAAAAAAAAAAAAAAAAAAAAAAAAAAAAAAAAAAAAAAAAAAAAAAAAAAAAAAAAAAAAAAAAAAAAAAAAAAAAAAAAAAAAAAAAAAAAAAAAAAAAAAAAAAAAAAAAAAAAAAAAAAAAAAAAAAAAAAAAAAAAAAAAAAAAAAAAAAAAAAAAAAAAAAAAAAAAAAAAAAAAAAAAAAAAAAAAAAAAAAAAAAAAAAAAAAAAAAAAAAAAAAAAAAAAAAAAAAAAAAAAAAAAAAAAAAAAAAAAAAAAAAAAAAAAAAAAAAAAAAAAAAAAAAAAAAAAAAAAAAAAAAAAAAAAAAAAAAAAAAAAAAAAAAAAAAAAAAAAAAAAAAAAAAAAAAAAAAAAAAAAAAAAAAAAAAAAAAAAAAAAAAAAAAAAAAAAAAAAAAAAAAAAAAAAAAAAAAAAAAAAAAAAAAAAAAAAAAAAAAAAAAAAAAAAAAAAAAAAAAAAAAAAAAAAAAAAAAAAAAAAAAAAAAAAAAAAAAAAAAAAAAAAAAAAAAAAAAAAAAAAAAAAAAAAAAAAAAAAAAAAAAAAAAAAAAAAAAAAAAAAAAAAAAAAAAAAAAAAAAAAAAAAAAAAAAAAAAAAAAAAAAAAAAAAAAAAAAAAAAAAAAAAAAAAAAAAAAAAAAAAAAAAAAAAAAAAAAAAAAAAAAAAAAAAAAAAAAAAAAAAAAAAAAAAAAAAAAAAAAAAAAAAAAAAAAAAAAAAAAAAAAAAAAAAAAAAAAAAAAAAAAAAAAAAAAAAAAAAAAAAAAAAAAAAAAAAAAAAAAAAAAAAAAAAAAAAAAAAAAAAAAAAAAAAAAAAAAAAAAAAAAAAAAAAAAAAAAAAAAAAAAAAAAAAAAAAAAAAAAAAAAAAAAAAAAAAAAAAAAAAAAAAAAAAAAAAAAAAAAAAAAAAAAAAAAAAAAAAAAAAAAAAAAAAAAAAAAAAAAAAAAAAAAAAAAAAAAAAAAAAAAAAAAAAAAAAAAAAAAAAAAAAAAAAAAAAAAAAAAAAAAAAAAAAAAAAAAAAAAAAAAAAAAAAAAAAAAAAAAAAAAAAAAAAAAAAAAAAAAAAAAAAAAAAAAAAAAAAAAAAAAAAAAAAAAAAAAAAAAAAAAAAAAAAAAAAAAAAAAAAAAAAAAAAAAAAAAAAAAAAAAAAAAAAAAAAAAAAAAAAAAAAAAAAAAAAAAAAAAAAAAAAAAAAAAAAAAAAAAAAAAAAAAAAAAAAAAAAAAAAAAAAAAAAAAAAAAAAAAAAAAAAAAAAAAAAAAAAAAAAAAAAAAAAAAAAAAAAAAAAAAAAAAAAAAAAAAAAAAAAAAAAAAAAAAAAAAAAAAAAAAAAAAAAAAAAAAAAAAAAAAAAAAAAAAAAAAAAAAAAAAAAAAAAAAAAAAAAAAAAAAAAAAAAAAAAAAAAAAAAAAAAAAAAAAAAAAAAAAAAAAAAAAAAAAAAAAAAAAAAAAAAAAAAAAAAAAAAAAAAAAAAAAAAAAAAAAAAAAAAAAAAAAAAAAAAAAAAAAAAAAAAAAAAAAAAAAAAAAAAAAAAAAAAAAAAAAAAAAAAAAAAAAAAAAAAAAAAAAAAAAAAAAAAAAAAAAAAAAAAAAAAAAAAAAAAAAAAAAAAAAAAAAAAAAAAAAAAAAAAAAAAAAAAAAAAAAAAAAAAAAAAAAAAAAAAAAAAAAAAAAAAAAAAAAAAAAAAAAAAAAAAAAAAAAAAAAAAAAAAAAAAAAAAAAAAAAAAAAAAAAAAAAAAAAAAAAAAAAAAAAAAAAAAAAAAAAAAAAAAAAAAAAAAAAAAAAAAAAAAAAAAAAAAAAAAAAAAAAAAAAAAAAAAAAAAAAAAAAAAAAAAAAAAAAAAAAAAAAAAAAAAAAAAAAAAAAAAAAAAAAAAAAAAAAAAAAAAAAAAAAAAAAAAAAAAAAAAAAAAAAAAAAAAAAAAAAAAAAAAAAAAAAAAAAAAAAAAAAAAAAAAAAAAAAAAAAAAAAAAAAAAAAAAAAAAAAAAAAAAAAAAAAAAAAAAAAAAAAAAAAAAAAAAAAAAAAAAAAAAAAAAAAAAAAAAAAAAAAAAAAAAAAAAAAAAAAAAAAAAAAAAAAAAAAAAAAAAAAAAAAAAAAAAAAAAAAAAAAAAAAAAAAAAAAAAAAAAAAAAAAAAAAAAAAAAAAAAAAAAAAAAAAAAAAAAAAAAAAAAAAAAAAAAAAAAAAAAAAAAAAAAAAAAAAAAAAAAAAAAAAAAAAAAAAAAAAAAAAAAAAAAAAAAAAAAAAAAAAAAAAAAAAAAAAAPZYQP3dcuQkX/rOu17TVGNKOyN/g3oLpUjpxkF7XMTRu5ucbEDHgvs0j5ZqZMiQOQgnaf74o/fuOZqN6uXSpZqo0rQ=</c2pa:manifest></metadata><path d="M256.542 58.6124C274.835 58.6286 287.435 63.8379 301.679 69.7355C313.048 74.4429 325.442 79.5766 342.479 82.7228C343.717 82.9512 345.675 83.1876 347.698 83.4327C349.352 83.6331 351.066 83.8414 352.538 84.0597C353.63 84.2216 354.535 84.3823 355.171 84.5372C356.189 95.6076 356.191 109.099 356.188 120.359V120.663C356.186 132.257 355.715 144.802 354.24 156.121C351.477 177.329 346.32 197.977 337.297 214.162C333.729 220.563 331.717 223.437 328.364 227.904L326.836 229.932L326.825 229.945C326.524 230.344 326.211 230.759 325.887 231.19C323.804 233.952 321.671 236.133 319.477 238.372C318.642 239.224 317.797 240.085 316.951 240.984L307.33 249.859C300.631 255.598 287.572 263.995 279.752 268.86C278.524 269.625 272.866 272.951 267.33 276.085C264.564 277.651 261.838 279.163 259.72 280.278C258.659 280.837 257.762 281.29 257.092 281.6C256.755 281.755 256.491 281.868 256.3 281.939C256.241 281.96 256.194 281.973 256.158 281.984C256.096 281.967 255.977 281.931 255.785 281.857C255.479 281.737 255.075 281.557 254.579 281.317C253.589 280.838 252.287 280.148 250.76 279.303C247.709 277.614 243.807 275.331 239.81 272.939C231.813 268.153 223.474 262.954 220.865 261.245C218.948 259.99 214.557 256.857 210.183 253.572C205.789 250.273 201.508 246.891 199.76 245.119C199.3 244.653 198.837 244.189 198.373 243.725L196.98 242.335C193.167 238.537 189.385 234.769 186.257 230.585C185.731 229.881 185.208 229.192 184.691 228.512C183.873 227.434 183.07 226.377 182.281 225.296C169.074 207.211 161.989 183.002 158.658 157.675C155.366 132.639 155.753 106.6 157.46 84.4952C159.525 84.0486 162.039 83.7568 164.594 83.4611C166.645 83.2236 168.717 82.9842 170.519 82.6583C183.261 80.3536 195.25 76.438 206.913 71.5822C208.92 70.7467 210.843 69.927 212.705 69.1339C226.756 63.1501 237.46 58.5955 256.542 58.6124ZM311.646 79.38L322.802 94.2277L328.902 107.561L332.22 120.539L333.358 131.869V131.87L335.744 161.113L335.745 161.127L335.746 161.14L337.69 178.986L337.695 179.039L337.707 179.091L340.799 193.315L341.583 196.921L342.728 193.412L345.378 185.284L345.392 185.24L345.402 185.194L349.908 165.228L349.922 165.168L349.928 165.108L352.489 139.574L352.493 139.539L352.494 139.503L353.201 114.589L353.202 114.552L353.2 114.514L351.964 87.921L351.926 87.1183L351.134 86.9825L335.194 84.2521L312.72 77.8185L309.855 76.9982L311.646 79.38ZM200.006 77.2159L194.377 79.1505L179.504 83.8146C176.867 84.3007 172.921 85.0329 169.571 85.6622C167.884 85.9793 166.345 86.2702 165.202 86.4913C164.631 86.6018 164.156 86.6953 163.81 86.7657C163.509 86.8268 163.212 86.8884 163.085 86.9308C162.636 87.0806 161.742 87.4188 161.363 87.5646L160.81 87.7775L160.731 88.3663L159.76 95.6993L159.751 95.7648V137.588L159.757 137.645L163.026 166.27L163.031 166.316L163.041 166.361L167.017 185.356L167.037 185.452L167.075 185.543L170.168 192.788L171.076 194.916L172.004 192.796L173.24 189.969L173.293 189.85L173.312 189.721L174.991 178.855L174.994 178.836L174.996 178.818L176.321 167.509L176.325 167.474L177.297 155.458L177.296 155.457L178.532 142.574L178.534 142.547L179.415 129.681L181.257 115.565L184.212 105.83L189.627 94.8253L194.168 87.837L201.124 78.7697L203.144 76.1368L200.006 77.2159Z" fill="#CAB27E" stroke="white" stroke-width="2" />
<path fill-rule="evenodd" clip-rule="evenodd" d="M354.61 85.2492C352.975 84.7149 349.949 84.3499 347.205 84.0189C345.71 83.8386 344.298 83.6684 343.241 83.4863C339.582 82.8562 335.998 82.0163 332.427 81.1322C325.314 79.3712 319.061 77.3154 312.416 74.858C308.103 73.2629 304.104 71.5417 300.156 69.8427C291.94 66.3066 283.948 62.8669 273.819 60.8622C258.382 57.8071 241.645 59.0095 227.525 63.8072C221.84 65.7388 216.963 67.8358 211.912 70.0081C205.456 72.7846 198.714 75.684 189.632 78.5179C176.959 82.4725 172.61 83.049 161.371 84.5389C160.864 84.6061 160.343 84.6751 159.807 84.7464C159.664 84.7654 159.534 84.7818 159.415 84.7969C158.769 84.8783 158.454 84.918 158.279 85.0957C158.112 85.2651 158.072 85.5598 157.995 86.1354C157.991 86.162 157.987 86.1892 157.984 86.217C157.678 88.4793 157.638 91.7408 157.601 94.7564C157.583 96.2908 157.565 97.7615 157.513 99.0046C155.642 143.96 158.749 193.589 185.324 228.223C202.106 250.096 220.787 260.91 242.674 273.58L242.675 273.58C245.902 275.448 249.198 277.357 252.569 279.347C256.428 281.625 256.507 281.575 258.835 280.121L258.835 280.121C259.368 279.787 260.019 279.381 260.861 278.911C272.871 272.211 282.315 266.671 293.623 259.076C300.235 254.635 310.032 247.248 315.623 241.613L324.97 231.239C337 216.241 343.078 202.208 348.553 182.501C352.581 168.004 354.295 152.26 355.154 136.525C355.768 125.292 355.409 114.465 355.047 103.579C354.846 97.514 354.644 91.431 354.61 85.2492ZM160.574 99.0046L161.192 88.3215L182.838 83.9925L200.331 78.5179L193.881 86.217L183.191 105.108L179.657 118.89L178.685 128.078L177.272 142.037L176.3 155.82L175.593 163.859L174.268 174.726L173.296 183.296L171.264 192.307L168.702 186.653L164.815 170.927L161.899 152.109L160.574 129.403V99.0046ZM335.504 85.2293L313.417 78.9566L319.866 88.0565L328.789 104.136L334.09 127.725L336.034 151.844L339.038 179.939L341.865 193.103L347.342 172.871L349.904 156.173L351.495 139.564L352.113 121.629L351.671 106.256L350.965 88.0565L335.504 85.2293Z" fill="#F6E0B1" />
<path fill-rule="evenodd" clip-rule="evenodd" d="M191.173 97.1213C196.653 102.23 197.372 103.316 205.621 106.211C222.012 111.965 232.396 121.014 240.105 136.328C240.528 137.166 240.763 137.662 241.086 138.417L242.306 140.538C246.224 122.774 262.53 114.335 270.463 140.465C272.528 137.643 272.711 134.193 279.299 125.626C282.739 121.153 286.588 117.383 291.194 113.924C295.677 110.557 300.817 108.389 307.117 106.248C313.029 104.24 319.456 100.514 321.491 96.6838C320.462 94.4459 318.254 90.9607 316.826 89.0091C303.224 70.4127 280.156 61.3766 256.156 61.4502C235.971 61.5119 214.238 68.5134 201.572 82.3377C198.974 85.1736 198.435 85.3521 195.847 88.988C194.647 90.6738 191.519 94.9333 191.173 97.1213Z" fill="#CAB27E" />
<path fill-rule="evenodd" clip-rule="evenodd" d="M193.163 96.7868C198.356 101.008 195.698 101.041 206.815 105.016C224.221 111.239 233.032 119.983 241.773 136.108C243.724 133.908 245.825 122.488 256.158 122.354C266.577 122.219 269.249 134.108 270.851 136.124C274.181 127.541 284.004 117.249 290.992 112.171C295.225 109.095 300.219 107.121 305.955 105.091C308.61 104.151 311.234 103.143 313.499 101.805C318.097 99.0903 317.249 98.4739 319.567 96.8157C318.604 93.5886 314.224 88.6018 312.337 86.1585L306.439 80.0693C302.333 76.9093 300.449 75.2941 295.432 72.509C269.894 58.3317 233.82 60.4947 210.145 76.9858C205.055 80.5318 194.747 91.3218 193.163 96.7868Z" fill="#0A1327" />
<path fill-rule="evenodd" clip-rule="evenodd" d="M256.125 277.592C258.706 276.578 280.524 255.328 283.382 251.544C286.036 248.03 289.962 243.955 293.085 239.581C294.546 237.535 296.043 235.4 297.609 233.27C307.789 219.419 320.836 190.57 323.629 173.096L322.09 174.615C321.702 175.133 321.495 175.485 320.983 176.195C315.166 184.243 309.447 189.584 301.359 195.249C294.986 199.714 286.971 203.748 279.26 206.423C277.933 206.883 270.789 208.647 270.677 209.395L269.897 211.378C267.41 219.695 263.901 230.454 260.868 238.314C256.809 248.83 256.147 250.395 251.742 238.401C248.48 229.52 245.483 220.8 242.854 211.697L242.26 209.969C241.316 208.107 235.911 207.335 233.695 206.547C221.773 202.311 211.159 196.041 201.94 188.01C200.75 186.974 200.318 186.001 199.13 185.029C195.637 182.171 191.201 174.926 188.988 172.949C189.911 180.917 196.393 198.069 199.517 205.138C208.759 226.052 215.668 234.848 228.704 250.999C229.57 252.072 230.449 252.678 231.341 253.766C232.366 255.015 232.567 255.411 233.931 256.594L242.087 264.693C244.788 267.361 253.464 275.717 256.125 277.592Z" fill="#CAB27E" />
<path fill-rule="evenodd" clip-rule="evenodd" d="M192.647 180.533C193.402 184.732 195.988 191.505 197.482 195.569C199.277 200.455 201.168 204.931 203.293 209.484C208.316 220.246 220.332 239.771 228.487 248.11C229.419 249.062 229.855 249.894 230.824 250.81L240.49 260.868C242.193 262.471 243.77 264.406 245.523 265.884C246.485 266.696 247.416 267.326 248.259 268.191C251.427 271.443 253.443 272.798 256.155 275.361L264.121 268.63C265.187 267.524 265.47 267.034 266.576 266.071C273.733 259.839 279.754 253.125 285.895 245.934C295.164 235.079 302.813 222.705 309.358 209.444C311.895 204.302 319.355 186.171 319.918 180.392C318.502 181.751 317.819 183.25 316.293 184.656C314.846 185.989 313.609 187.181 312.259 188.746C306.541 195.376 290.081 204.331 281.451 207.45C271.57 211.022 272.356 208.815 271.103 213.333C269.218 220.13 263.409 237.133 260.576 243.822C259.661 245.982 258.903 248.242 256.523 248.365C253.043 248.546 251.742 242.863 250.044 238.548C248.463 234.528 247.068 230.445 245.701 226.264C244.366 222.185 243.024 218.139 241.754 213.963C240.192 208.829 242.131 211.408 231.554 207.529C222.143 204.078 206.899 195.874 200.841 189.115C199.597 187.726 198.136 186.279 196.813 185.017C194.893 183.185 194.327 181.935 192.647 180.533Z" fill="#324262" />
<path fill-rule="evenodd" clip-rule="evenodd" d="M310.009 118.343C310.728 124.596 310.242 129.087 306.073 131.894C299.802 136.116 295.095 132.595 292.014 131.434C287.603 142.414 283.601 148.575 281.092 161.891C282.052 161.477 283.435 160.293 284.645 159.592C288.996 157.073 297.842 154.91 299.852 157.847C302.175 161.239 295.256 161.915 289.563 166.049C283.631 170.355 279.702 177.989 277.144 185.739C275.808 189.787 271.904 202.156 271.704 206.024C282.825 203.638 298.326 195.348 306.241 188.521C307.357 187.558 307.733 187.044 308.894 186.151C312.704 183.22 318.463 175.6 320.942 171.512C326.4 162.515 329.691 152.125 330.648 139.573C331.359 130.243 329.681 112.836 325.288 104.527L324.583 103.495C323.326 108.987 319.145 113.21 314.761 115.831C313.273 116.721 311.278 117.408 310.009 118.343Z" fill="#CAB27E" />
<path fill-rule="evenodd" clip-rule="evenodd" d="M240.995 206.052C240.411 202.031 238.296 195.3 237.099 191.164C233.732 179.533 229.24 167.851 217.801 162.886C215.084 161.707 212.625 161.558 212.359 158.567C214.015 155.649 219.509 156.308 222.637 157.252C224.384 157.779 225.918 158.34 227.361 159.133C228.962 160.012 230.025 160.979 231.442 161.75C230.453 156.157 228.566 150.914 226.742 145.82C224.886 140.638 222.45 136.158 220.599 131.505C217.983 132.375 212.717 136.274 206.382 131.751C202.502 128.981 201.483 124.609 202.677 118.358C197.063 115.647 193.12 113.56 190.221 108.459C189.46 107.119 188.562 104.574 187.807 103.358C178.175 124.84 180.359 152.971 191.715 171.552C193.616 174.662 198.143 181.122 200.829 183.328C201.937 184.238 202.497 184.821 203.366 185.82C207.695 190.795 219.57 197.486 225.518 200.416C228.882 202.074 237.122 205.34 240.995 206.052Z" fill="#CAB27E" />
<path fill-rule="evenodd" clip-rule="evenodd" d="M256.281 242.388C266.8 224.538 264.446 189.594 271.834 174.251L275.097 168.613C275.321 168.295 275.592 167.949 275.754 167.711C276.419 166.74 275.889 167.665 276.395 166.689C273.89 159.645 271.514 154.124 269.556 146.349C268.193 140.934 265.63 131.52 260.988 127.831C255.861 123.757 250.64 127.784 248.084 132.328C247.249 133.813 246.568 135.405 245.895 137.094C243.33 143.529 241.981 151.164 239.611 157.886C238.9 159.904 235.901 166.219 236.498 167.399C236.882 168.158 238.448 169.925 239.211 171.252C249.351 188.895 244.225 218.6 256.281 242.388Z" fill="#CAB27E" />
<path fill-rule="evenodd" clip-rule="evenodd" d="M238.617 203.56C236.391 191.997 230.683 174.746 224.295 169.156C216.486 162.322 209.834 163.802 210.79 158.199C211.354 154.893 216.354 154.647 219.804 155.04C224.316 155.553 225.746 157.148 228.962 158.144C227.51 151.744 222.765 138.4 219.789 133.55C214.665 135.654 209.993 136.586 205.316 132.816C201.311 129.588 199.99 125.713 200.956 119.018C194.564 117.637 190.707 111.292 188.07 107.911C183.904 113.231 183.015 133.549 183.826 141.545C184.983 152.946 188.109 162.578 193.212 170.833C198.59 179.532 204.216 185.081 211.996 190.73C218.044 195.121 229.828 201.595 238.617 203.56Z" fill="#324262" />
<path d="M258.803 41.9887L256.18 44.6123L254.868 43.3005L252.244 39.3651L250.933 36.7415L252.244 34.1179L256.18 30.1826L258.803 32.8061L261.427 35.4297V38.0533L258.803 41.9887Z" fill="white" />
<path fill-rule="evenodd" clip-rule="evenodd" d="M311.692 119.021C313.212 128.226 308.318 135.039 300.266 135.384C296.537 135.544 295.394 134.408 292.906 133.611C290.57 136.845 284.429 153.423 283.571 158.223C286.608 156.969 288.657 155.614 292.521 155.084C296.303 154.566 301.141 154.778 301.762 158.265C302.886 164.585 293.256 162.243 285.709 172.256C282.721 176.221 281.144 179.598 279.386 184.501C278.31 187.501 274.062 201.022 274.064 203.64C294.58 197.349 310.395 185.572 319.149 171.27C327.556 157.533 330.634 140.439 328.583 123.662C328.119 119.863 326.414 110.42 324.628 107.925C323.557 109.027 323.198 110.442 319.228 114.489C317.863 115.881 314.134 118.36 311.692 119.021Z" fill="#324262" />
<path fill-rule="evenodd" clip-rule="evenodd" d="M256.137 238.312C259.353 234.285 262.677 215.607 263.608 208.903C265.038 198.604 265.527 186.851 268.825 177.424C269.816 174.59 271.575 170.872 273.361 168.414C275.571 165.372 274.131 166.122 271.567 159.016C270.748 156.748 269.994 154.35 269.328 151.957C267.211 144.347 263.952 128.046 256.544 127.9C248.483 127.741 245.779 143.976 243.4 151.612C241.891 156.459 240.551 160.564 238.654 165.09C237.736 167.279 238.475 166.882 240.786 170.844C248.217 183.585 247.455 205.153 251.767 224.071C252.957 229.292 254.886 233.735 256.137 238.312Z" fill="#0A1327" />
<path fill-rule="evenodd" clip-rule="evenodd" d="M176.502 163.982C175.956 169.057 172.736 193.768 171.048 196.319C169.439 193.562 166.849 183.296 165.931 179.556C159.265 152.39 159.151 126.475 160.021 98.6338C160.03 98.3355 160.042 97.7444 160.059 96.986C160.122 94.0167 160.239 88.4829 160.43 87.9188C160.76 86.9429 163.868 86.5882 166.624 86.2736C167.568 86.166 168.47 86.063 169.205 85.9414C180.009 84.1551 190.889 80.5706 197.433 78.4143C200.267 77.4804 202.289 76.8144 203.139 76.6785C202.932 77.9413 200.625 80.0443 199.221 81.3249C199.033 81.4964 198.861 81.6532 198.712 81.7912C197.457 82.9577 195.591 85.419 194.353 87.1054C180.573 105.877 179.387 124.031 177.997 145.302C177.608 151.257 177.203 157.457 176.502 163.982ZM167.641 88.0566L162.34 88.7634L161.987 93.0041L161.722 98.7467L161.457 108.023V117.212V123.926L161.634 130.464L161.899 137.443L162.429 145.218L163.047 151.402L163.754 157.057L164.726 163.683L165.698 170.044L167.73 180.027L169.232 186.035L170.645 189.569L171.705 186.212L173.119 177.553L173.737 171.546L174.444 165.626L174.974 159.795L175.858 149.635L176.3 144.334L176.741 138.945L177.006 135.323L177.36 131.347L177.713 127.018L178.332 121.541L179.303 116.151L180.629 110.674L182.307 105.461L184.339 100.514L186.106 97.0681L189.463 91.1488L192.909 85.9414L195.736 82.0489L196.973 80.7237L188.845 83.1091L182.042 85.0528L178.862 85.9414L175.504 86.643L172.147 87.2615L167.641 88.0566Z" fill="#CAB27E" />
<path fill-rule="evenodd" clip-rule="evenodd" d="M351.972 146.567C350.369 165.774 346.947 179.489 341.65 196.472C339.823 193.882 336.621 168.92 336.049 163.685C335.297 156.799 334.808 149.826 334.318 142.859C333.988 138.153 333.658 133.45 333.247 128.777C331.877 113.195 327.154 98.6572 318.165 86.902C318.03 86.7253 317.889 86.5411 317.745 86.3513C316.515 84.7357 314.981 82.7216 313.781 81.6141C313.624 81.4696 313.447 81.3088 313.255 81.135C311.867 79.8784 309.732 77.9444 309.372 76.6053C311.439 76.9695 314.116 77.9666 316.564 78.8786C317.668 79.2897 318.725 79.6835 319.659 79.9942C326.774 82.3617 333.438 84.048 340.902 85.4614L350.889 87.0637C351.395 87.2081 351.527 87.2179 351.63 87.278C351.71 87.3249 351.772 87.4024 351.981 87.5988C353.961 90.6759 352.569 139.412 351.972 146.567ZM317.658 83.109L315.272 80.4586L327.818 84.1692L333.119 85.6711L335.857 86.3779L341.953 87.5264L346.371 88.2332L350.523 88.7633L350.7 95.8312L350.877 102.811L351.053 110.85L351.23 119.332V124.544L350.965 133.644L350.435 141.684L349.905 148.663L348.845 158.293L348.049 164.124L346.901 171.192L345.752 176.582L344.25 182.943C343.72 184.592 342.642 187.925 342.572 188.067C342.501 188.208 342.13 189.186 341.953 189.657L340.982 185.858L340.363 182.678L339.656 178.26L339.215 174.726L338.508 168.984L337.889 162.976L337.359 157.587L336.917 150.872L336.476 145.571L336.211 140.447L335.857 135.235L335.416 131.347L334.885 126.311L334.444 123.042L333.914 119.509L333.119 115.621L332.323 112.352L331.882 110.674L331.175 108.112L330.026 104.843L329.055 102.369L327.729 99.3651L326.404 96.803L325.344 94.8594L324.195 92.8273L322.87 90.6186L321.545 88.4983L320.308 86.7313L317.658 83.109Z" fill="#CAB27E" />
<path fill-rule="evenodd" clip-rule="evenodd" d="M244.612 271.444C243.135 269.469 241.067 267.665 239.101 265.739L225.164 250.659C224.649 250.037 224.349 249.837 223.858 249.27C223.289 248.611 223.108 248.214 222.514 247.505C198.879 219.285 188.562 188.164 181.837 152.414C181.522 150.741 181.881 150.958 180.721 150.452C179.592 152.081 179.656 159.008 179.39 161.612C177.917 176.024 176.33 185.192 173.444 199.27C172.869 202.078 172.752 201.638 173.933 204.015C178.669 213.551 181.179 218.964 188.189 227.679C196.773 238.352 202.413 243.926 213.618 252.154C218.189 255.511 238.949 269.48 244.612 271.444Z" fill="#CAB27E" />
<path fill-rule="evenodd" clip-rule="evenodd" d="M267.917 271.419C274.398 269.758 298.796 252.266 305.562 247.029C310.77 242.998 320.108 233.675 324.327 227.883C332.614 216.508 332.475 216.127 338.474 204.499C340.295 200.969 339.009 198.725 338.153 194.572C336.702 187.533 335.548 180.319 334.559 173.028C334.121 169.797 332.544 151.595 331.979 150.472C330.602 150.965 331.231 150.355 330.441 154.346C328.258 165.372 325.852 176.332 322.484 186.972C314.767 211.356 305.28 228.364 290.143 247.474L282.094 256.834C281.133 257.9 280.135 258.604 279.154 259.683C275.447 263.764 271.427 267.396 267.917 271.419Z" fill="#CAB27E" />
<path d="M331.725 85.6783L331.733 85.6813L331.742 85.6832C337.471 87.1362 343.874 88.3869 350.217 89.0377L350.951 119.129C351.052 128.335 350.391 142.013 348.846 155.416C347.378 168.143 345.116 180.566 341.979 188.675C341.109 185.6 340.303 180.73 339.628 175.7C338.849 169.899 338.249 163.947 337.922 160.435C337.451 155.377 337.138 150.241 336.809 145.091C336.48 139.946 336.135 134.788 335.6 129.705C334.528 119.539 332.691 109.635 328.672 100.635C327.369 97.7189 325.161 93.6188 322.688 89.7028C320.678 86.5215 318.474 83.4327 316.423 81.1949L331.725 85.6783Z" stroke="white" />
<path d="M196.018 81.2968C195.455 81.9059 194.86 82.6278 194.249 83.4237C192.987 85.0691 191.624 87.0757 190.304 89.1639C187.665 93.3376 185.171 97.8705 183.957 100.549C180.153 108.943 178.116 118.323 177.215 128.48C176.811 133.026 175.829 147.019 174.554 160.611C173.917 167.399 173.208 174.069 172.466 179.377C172.095 182.031 171.715 184.339 171.334 186.147C171.099 187.264 170.865 188.166 170.643 188.836C169.783 186.795 168.937 183.906 168.136 180.508C167.192 176.506 166.316 171.839 165.548 167.101C164.011 157.626 162.908 147.899 162.546 142.72C161.649 129.898 161.342 101.776 162.592 89.0448C168.861 88.3472 175.355 87.169 181.322 85.6278L181.33 85.6259L181.339 85.6229L196.018 81.2968Z" stroke="white" />
<path fill-rule="evenodd" clip-rule="evenodd" d="M277.458 264.191L290.588 256.035C310.99 242.264 324.862 228.495 336.021 205.936C338.102 201.729 338.061 202.472 337.061 197.575C335.849 191.639 334.739 185.646 333.769 179.55C333.207 176.018 331.997 162.313 331.205 160.366C330.127 162.35 328.174 172.81 327.362 176.008C320.88 201.531 308.491 229.013 291.524 248.463C288.262 252.202 285.746 255.555 282.246 258.903C281.107 259.992 278.185 263.038 277.458 264.191Z" fill="#0A1327" />
<path fill-rule="evenodd" clip-rule="evenodd" d="M235.437 264.345C232.833 262.83 220.229 247.422 217.032 243.321C202.121 224.192 191.016 199.458 185.134 175.445C183.868 170.277 182.723 164.328 181.315 159.458C180.142 172.227 178.23 184.702 175.721 196.889C174.787 201.429 174.251 201.166 176.275 205.167C189.495 231.295 203.991 245.05 228.893 260.477C230.929 261.739 233.458 263.544 235.437 264.345Z" fill="#0A1327" />
<path d="M256.271 22.6074C256.63 23.0659 257.081 23.6706 257.593 24.3838C258.671 25.8846 260.004 27.8322 261.321 29.8184C262.638 31.8044 263.934 33.8213 264.937 35.4609C265.438 36.2815 265.863 37.0008 266.179 37.5713C266.309 37.806 266.411 38.0044 266.493 38.166C266.292 38.3489 266.077 38.5099 265.819 38.6992C265.405 39.0038 264.902 39.3718 264.355 39.9756C263.341 41.0969 262.205 42.7521 261.275 44.4824C260.353 46.1988 259.576 48.0934 259.363 49.6895L259.22 50.7705L260.309 50.8213C266.899 51.1282 271.911 52.0253 277.852 53.0898C278.543 53.2137 279.246 53.3402 279.966 53.4678L280.56 53.5723L280.93 53.0967C281.14 52.8258 281.317 52.4601 281.465 52.1045C281.621 51.7288 281.777 51.2817 281.932 50.7959C282.241 49.8227 282.558 48.6399 282.852 47.4473C283.438 45.0612 283.946 42.576 284.137 41.5195L284.41 40.0107L282.919 40.3691C280.658 40.9134 279.168 41.9772 278.151 43.1924C277.36 44.1383 276.879 45.1532 276.535 45.9834L274.624 42.2061C275.044 41.6409 275.757 40.9766 276.753 40.2559C277.973 39.3728 279.513 38.4747 281.184 37.6328C283.895 36.2666 286.882 35.0815 289.291 34.3594L283.701 57.7744C280.205 57.2109 277.709 56.6421 275.429 56.1201C270.477 54.9865 266.589 54.1016 256.157 54.0879C245.91 54.0745 241.768 55.0405 236.918 56.1777C234.675 56.7036 232.295 57.2586 229.062 57.7734L223.394 34.2402C225.766 34.9076 228.596 36.0482 231.205 37.3818C232.804 38.1989 234.298 39.0776 235.536 39.9463C236.606 40.697 237.443 41.4127 237.994 42.0459C237.778 43.0921 237.159 44.2353 236.442 45.5244C236.303 45.7759 236.16 46.0337 236.02 46.2939C235.93 46.0757 235.845 45.8591 235.76 45.6367C235.415 44.7389 235.042 43.7401 234.14 42.8193C233.244 41.905 231.909 41.1427 229.775 40.4326L228.06 39.8613L228.487 41.6182L231.211 52.7949L231.428 53.6895L232.337 53.5469C234.106 53.2692 235.758 52.9859 237.352 52.7129C242.229 51.8777 246.585 51.1328 252.372 50.8564L253.544 50.7998L253.304 49.6523C252.192 44.3362 249.357 41.3823 247.458 39.3965C246.839 38.7494 246.39 38.2705 246.096 37.8691C247.161 35.9856 248.489 34.028 249.785 32.123C250.336 31.3135 250.88 30.5137 251.388 29.7422C253.006 27.2807 254.665 24.8967 256.271 22.6074ZM255.323 29.7393L250.994 36.543L250.689 37.0205L250.943 37.5264L251.208 38.0566L251.244 38.1299L251.292 38.1963L253.123 40.7246L254.385 42.8271L255.152 44.7021L255.865 46.4453L256.91 44.8789L258.677 42.2285L258.683 42.2197L260.002 40.1963L261.416 38.0762L261.474 37.9893L261.513 37.8926L261.689 37.4512L261.868 37.0029L261.629 36.583L261.275 35.9648L261.269 35.9531L261.262 35.9424L259.76 33.4678L259.747 33.4463L259.732 33.4248L258.23 31.2158L258.204 31.1777L258.175 31.1426L256.938 29.6406L256.062 28.5771L255.323 29.7393Z" fill="#CAB27E" stroke="white" stroke-width="2" />
<path fill-rule="evenodd" clip-rule="evenodd" d="M249.982 170.17C249.996 177.45 250.57 185.107 251.418 192.24C251.56 193.431 254.558 221.469 258.419 207.254C258.842 205.697 259.232 204.121 259.541 202.557C261.591 192.182 262.657 179.52 262.647 169.01C262.638 160.324 261.984 139.823 256.544 135.024C250.635 136.986 249.967 162.914 249.982 170.17Z" fill="#CAB27E" />
<path fill-rule="evenodd" clip-rule="evenodd" d="M248.079 39.1384C247.687 38.7906 247.311 38.4576 246.92 38.015C247.414 36.6772 250.201 32.5604 252.661 28.9253C254.122 26.7664 255.469 24.7773 256.151 23.6411C257.338 24.8018 264.925 36.1538 265.596 37.8948C265.13 38.6184 264.664 39.0539 264.141 39.5433C263.77 39.8904 263.371 40.2646 262.921 40.788C261.008 43.0135 258.417 48.2738 258.25 51.2635C258.459 51.2746 258.668 51.2857 258.876 51.2967C262.827 51.5058 266.51 51.7008 270.407 52.2584C271.882 52.4694 273.534 52.8193 275.185 53.1689C277.485 53.6559 279.782 54.1422 281.592 54.2517L285.363 38.8539C281.598 39.2061 278.342 42.4149 276.45 44.2798L276.371 44.3577L275.397 42.1493C277.761 39.9173 284.243 35.9911 288.506 35.3193L283.225 57.0108C280.002 56.6472 277.608 56.0883 275.185 55.5226C270.899 54.5221 266.524 53.5008 257.316 53.5035C246.649 53.5064 243.483 54.1863 238.299 55.2997C236.012 55.7908 233.332 56.3662 229.443 57.005L224.132 35.259C228.098 36.0018 235.06 39.83 237.312 42.2145L236.068 44.4136C234.892 42.1992 230.641 39.4625 227.21 38.8855L231.127 54.3936C238.731 52.73 245.928 51.4027 254.252 51.3101C254.207 49.1781 252.484 45.2675 251.545 43.6625C251.518 43.6161 251.491 43.5698 251.464 43.5234C250.786 42.3638 250.11 41.2069 249.387 40.4038C248.91 39.8742 248.486 39.4983 248.079 39.1384ZM255.106 41.9387L254.134 40.4367L252.455 38.1397L251.749 37.0795L253.604 34.2524L254.929 32.2204L256.166 30.365L256.431 30.5417L258.552 33.4572L259.877 35.5776L260.76 37.0795L260.495 37.6096L259.965 38.4047L257.933 41.4969L257.315 42.5571L256.52 43.6625L256.078 44.4124L255.989 44.059L255.548 42.9105L255.106 41.9387Z" fill="#F6E0B1" />
<path fill-rule="evenodd" clip-rule="evenodd" d="M256.175 209.196C259.055 204.509 260.937 180.402 261.153 173.272C261.404 164.978 260.532 142.557 256.29 137.074C248.76 147.594 251.219 196.516 256.175 209.196Z" fill="#F6E0B1" />
<path fill-rule="evenodd" clip-rule="evenodd" d="M272.404 146.816L286.781 130.012C290.829 126.773 292.329 125.028 297.585 121.865C302.749 118.758 309.711 117.121 314.832 113.961C317.855 112.095 326.11 104.271 322.695 98.15C321.6 98.6767 321.838 98.6303 320.944 99.5766C320.317 100.241 320.025 100.509 319.398 101.128C311.766 108.657 304.562 106.026 290.541 116.357C288.583 117.799 285.429 120.561 284.041 122.239C282.132 124.548 280.153 126.798 278.403 129.374C276.435 132.27 269.137 142.456 272.404 146.816Z" fill="#CAB27E" />
<path fill-rule="evenodd" clip-rule="evenodd" d="M240.295 146.885C244.304 139.065 228.296 121.111 222.134 116.384C209.509 106.7 201.552 108.727 193.252 101.177C192.034 100.069 191.305 98.9777 190.004 97.9774C186.923 102.65 192.547 110.407 197.616 113.831C202.284 116.984 209.372 118.539 214.796 121.784C220.012 124.905 225.16 129.259 228.897 132.836C230.949 134.799 233.016 137.143 234.927 139.568L240.295 146.885Z" fill="#CAB27E" />
<path fill-rule="evenodd" clip-rule="evenodd" d="M256.099 204.993C256.9 203.959 256.841 203.416 257.118 201.648C257.322 200.344 257.531 199.005 257.729 197.652C258.106 195.082 258.463 192.398 258.737 189.828C259.343 184.151 259.693 178.613 259.848 172.878C259.991 167.604 259.554 142.591 256.157 140.225C254.324 142.316 253.487 152.729 253.28 155.268C252.283 167.508 252.77 195.074 256.099 204.993Z" fill="#CAB27E" />
<path fill-rule="evenodd" clip-rule="evenodd" d="M239.419 143.002C238.07 134.764 227.101 121.892 220.44 116.92C207.672 107.39 204.117 112.022 190.704 101.015C191.569 113.56 206.524 115.031 216.09 120.875C225.375 126.547 232.912 134.404 239.419 143.002Z" fill="white" />
<path fill-rule="evenodd" clip-rule="evenodd" d="M273.149 142.827C275.231 140.856 277.563 136.559 283.815 130.906C284.881 129.941 285.415 129.14 286.578 128.263C287.68 127.432 288.659 126.532 289.755 125.632C291.968 123.814 293.944 122.363 296.523 120.794C303.391 116.618 321.642 113.281 321.894 101.024C315.851 105.887 315.753 106.337 307.756 109.209C301.851 111.329 296.773 113.419 292.427 116.707C285.423 122.005 274.834 134.46 273.149 142.827Z" fill="white" />
<path fill-rule="evenodd" clip-rule="evenodd" d="M266.612 212.723C269.905 208.994 272.692 180.345 284.342 167.403C287.777 163.588 292.75 161.352 297.523 159.388C294.206 155.943 284.155 162.263 282.239 163.756C278.852 166.398 275.027 170.639 272.756 175.935C269.975 182.417 266.121 204.887 266.612 212.723Z" fill="#CAB27E" />
<path fill-rule="evenodd" clip-rule="evenodd" d="M215.13 158.881C215.809 159.88 215.072 159.292 216.483 159.954C220.378 161.782 224.135 162.893 227.898 167.092C231.307 170.895 233.589 174.4 235.999 180.268C238.985 187.54 244.357 210.897 245.999 212.647C246.315 204.732 242.78 182.763 239.95 176.316C236.748 169.022 230.965 162.82 224.129 160.027C222.344 159.297 216.842 157.834 215.13 158.881Z" fill="#CAB27E" />
<path fill-rule="evenodd" clip-rule="evenodd" d="M234.053 164.46C234.77 163.879 234.087 164.751 234.832 163.548L236.369 159.669C240.533 148.085 240.43 149.844 236.332 143.963C233.677 140.152 225.572 130.661 221.658 129.137L228.701 145.788C230.893 151.938 232.604 157.789 234.053 164.46Z" fill="#CAB27E" />
<path fill-rule="evenodd" clip-rule="evenodd" d="M278.102 164.501C278.557 164.006 278.311 164.419 278.648 163.699C278.85 163.269 278.915 162.988 279.036 162.488L280.878 155.049C282.329 149.651 284.983 142.588 287.292 137.484C288.468 134.884 289.988 131.936 290.819 129.284C286.665 130.365 275.959 143.717 273.351 148.321C271.948 150.797 276.754 159.551 278.102 164.501Z" fill="#CAB27E" />
<path fill-rule="evenodd" clip-rule="evenodd" d="M256.423 197.324C258.071 181.453 260.244 159.513 256.3 144.08C254.875 153.158 254.177 160.938 254.207 170.557C254.223 175.704 254.713 193.74 256.423 197.324Z" fill="white" />
<path fill-rule="evenodd" clip-rule="evenodd" d="M296.002 125.297C294.951 126.404 293.51 128.337 292.986 129.569C296.293 131.91 300.323 133.644 304.63 130.841C308.155 128.548 309.48 124.632 308.314 119.127C307.492 119.209 305.105 119.896 304.469 120.234C302.666 121.189 303.996 121.577 303.058 123.843C301.614 127.333 298.908 125.381 296.002 125.297Z" fill="#F6E0B1" />
<path d="M216.856 125.125C217.619 126.863 218.658 127.483 219.503 129.559C215.041 134.458 201.616 133.333 204.353 118.899L209.139 120.566C209.086 128.488 214.272 125.547 216.856 125.125Z" fill="#F6E0B1" />
<path fill-rule="evenodd" clip-rule="evenodd" d="M277.835 159.819L284.384 140.378C285.194 138.374 286.543 135.871 287.055 134.034C282.867 137.5 278.263 143.417 275.194 148.238C273.635 150.687 276.37 154.426 277.835 159.819Z" fill="#0A1327" />
<path fill-rule="evenodd" clip-rule="evenodd" d="M234.505 159.811C235.76 157.933 236.506 154.85 237.262 152.445C238.533 148.401 237.458 147.938 235.446 145.234C233.289 142.335 227.787 135.19 225.54 134.115C228.289 142.423 232.318 148.379 234.505 159.811Z" fill="#0A1327" />
<mask id="path-44-inside-1_108_2623" fill="white">
<path fill-rule="evenodd" clip-rule="evenodd" d="M295.288 138.068C300.016 141.674 317.409 139.738 316.757 123.502C314.483 124.557 315.349 129.264 309.534 134.199C304.149 138.769 298.614 136.71 295.288 138.068Z" />
</mask>
<path fill-rule="evenodd" clip-rule="evenodd" d="M295.288 138.068C300.016 141.674 317.409 139.738 316.757 123.502C314.483 124.557 315.349 129.264 309.534 134.199C304.149 138.769 298.614 136.71 295.288 138.068Z" fill="#EED7A5" />
<path d="M295.288 138.068L293.397 133.44L285.307 136.744L292.256 142.044L295.288 138.068ZM316.757 123.502L321.753 123.301L321.452 115.81L314.652 118.967L316.757 123.502ZM309.534 134.199L312.769 138.012L312.769 138.011L309.534 134.199ZM295.288 138.068L292.256 142.044C294.603 143.834 297.767 144.506 300.572 144.594C303.532 144.687 306.855 144.161 309.994 142.828C313.157 141.485 316.254 139.267 318.497 135.917C320.763 132.533 321.954 128.298 321.753 123.301L316.757 123.502L311.761 123.702C311.886 126.824 311.148 128.92 310.188 130.353C309.206 131.819 307.781 132.904 306.086 133.624C304.368 134.353 302.496 134.65 300.886 134.599C300.089 134.574 299.432 134.466 298.947 134.33C298.436 134.186 298.271 134.055 298.32 134.093L295.288 138.068ZM316.757 123.502L314.652 118.967C312.554 119.941 311.527 121.652 311.004 122.71C310.588 123.551 310.063 124.976 309.852 125.488C309.252 126.942 308.413 128.593 306.298 130.387L309.534 134.199L312.769 138.011C316.47 134.87 318.106 131.7 319.095 129.303C319.679 127.89 319.727 127.631 319.97 127.139C320.106 126.863 319.823 127.591 318.862 128.037L316.757 123.502ZM309.534 134.199L306.299 130.387C304.666 131.773 303.062 132.187 301.183 132.359C299.935 132.473 299.362 132.445 297.837 132.544C296.668 132.619 295.018 132.778 293.397 133.44L295.288 138.068L297.179 142.697C297.171 142.7 297.251 142.667 297.482 142.627C297.717 142.587 298.032 142.552 298.483 142.523C299.099 142.483 300.87 142.429 302.094 142.317C305.161 142.037 309.017 141.196 312.769 138.012L309.534 134.199Z" fill="#CAB27E" mask="url(#path-44-inside-1_108_2623)" />
<path fill-rule="evenodd" clip-rule="evenodd" d="M269.732 196.902C271.008 194.31 271.964 189.214 272.869 186.108C274.601 180.165 278.286 171.598 282.464 167.463C284.341 165.605 287.286 162.375 290.061 161.048C284.363 162.442 277.611 169.568 275.293 174.22C272.405 180.015 269.783 189.532 269.732 196.902Z" fill="#F2F2F2" />
<path fill-rule="evenodd" clip-rule="evenodd" d="M242.914 197.28C242.801 190.746 240.324 179.92 237.606 174.788C234.892 169.664 229.157 163.067 223.178 161.323C224.37 162.347 226.103 163.307 227.163 164.356C227.979 165.163 228.047 165.481 228.823 166.171C231.871 168.877 234.075 172.427 235.984 176.414C240.192 185.201 240.376 190.284 242.914 197.28Z" fill="#F2F2F2" />
<mask id="path-48-inside-2_108_2623" fill="white">
<path fill-rule="evenodd" clip-rule="evenodd" d="M217.134 138.069C213.596 136.929 203.929 138.815 199.058 129.402C198.148 127.644 197.332 124.249 195.897 123.466C195.083 131.484 200.774 138.384 208.804 139.366C210.822 139.612 214.734 139.402 216.651 138.388C216.719 138.352 216.84 138.263 216.894 138.232C216.948 138.201 217.059 138.13 217.134 138.069Z" />
</mask>
<path fill-rule="evenodd" clip-rule="evenodd" d="M217.134 138.069C213.596 136.929 203.929 138.815 199.058 129.402C198.148 127.644 197.332 124.249 195.897 123.466C195.083 131.484 200.774 138.384 208.804 139.366C210.822 139.612 214.734 139.402 216.651 138.388C216.719 138.352 216.84 138.263 216.894 138.232C216.948 138.201 217.059 138.13 217.134 138.069Z" fill="#F6E0B1" />
<path d="M217.134 138.069L220.31 141.93L227.382 136.115L218.666 133.309L217.134 138.069ZM199.058 129.402L203.499 127.104L203.499 127.104L199.058 129.402ZM195.897 123.466L198.292 119.077L191.682 115.468L190.922 122.961L195.897 123.466ZM208.804 139.366L208.197 144.329L208.197 144.329L208.804 139.366ZM216.651 138.388L218.989 142.808L218.994 142.805L216.651 138.388ZM216.894 138.232L214.397 133.901L214.395 133.902L216.894 138.232ZM217.134 138.069L218.666 133.309C217.105 132.807 215.108 132.68 213.941 132.577C212.469 132.447 211.113 132.306 209.783 131.981C207.337 131.383 205.109 130.216 203.499 127.104L199.058 129.402L194.618 131.7C197.878 138.001 202.919 140.598 207.409 141.695C209.547 142.218 211.575 142.407 213.063 142.538C213.858 142.608 214.426 142.655 214.927 142.717C215.441 142.781 215.61 142.831 215.602 142.828L217.134 138.069ZM199.058 129.402L203.499 127.104C203.404 126.921 203.266 126.6 203.036 126.015C202.841 125.518 202.56 124.779 202.274 124.108C201.986 123.432 201.593 122.581 201.076 121.776C200.602 121.037 199.729 119.861 198.292 119.077L195.897 123.466L193.501 127.854C192.782 127.462 192.549 127.004 192.66 127.177C192.729 127.284 192.866 127.538 193.075 128.029C193.286 128.524 193.47 129.012 193.728 129.671C193.953 130.242 194.258 131.004 194.618 131.7L199.058 129.402ZM195.897 123.466L190.922 122.961C189.825 133.781 197.561 143.028 208.197 144.329L208.804 139.366L209.411 134.403C203.987 133.739 200.342 129.187 200.871 123.97L195.897 123.466ZM208.804 139.366L208.197 144.329C209.649 144.506 211.512 144.502 213.268 144.324C214.906 144.159 217.153 143.779 218.989 142.808L216.651 138.388L214.313 133.968C214.343 133.952 214.183 134.034 213.746 134.138C213.34 134.235 212.833 134.317 212.263 134.375C211.079 134.494 209.977 134.472 209.411 134.403L208.804 139.366ZM216.651 138.388L218.994 142.805C219.1 142.749 219.187 142.698 219.245 142.663C219.306 142.627 219.358 142.594 219.397 142.57C219.471 142.523 219.534 142.48 219.563 142.46C219.576 142.452 219.598 142.437 219.6 142.436C219.609 142.43 219.608 142.43 219.603 142.434C219.599 142.436 219.581 142.448 219.554 142.466C219.53 142.48 219.472 142.517 219.393 142.563L216.894 138.232L214.395 133.902C214.346 133.93 214.304 133.955 214.272 133.975C214.239 133.995 214.211 134.013 214.188 134.027C214.144 134.055 214.106 134.08 214.082 134.096C214.058 134.112 214.036 134.127 214.022 134.136C214.016 134.14 214.008 134.145 214.004 134.148C213.999 134.152 213.995 134.154 213.992 134.156C213.986 134.16 213.986 134.16 213.99 134.158C213.994 134.155 214.006 134.147 214.023 134.136C214.04 134.125 214.071 134.106 214.112 134.081C214.133 134.069 214.16 134.053 214.191 134.035C214.222 134.018 214.261 133.996 214.308 133.971L216.651 138.388ZM216.894 138.232L219.391 142.564C219.58 142.455 219.946 142.23 220.31 141.93L217.134 138.069L213.958 134.207C214.038 134.141 214.102 134.094 214.137 134.068C214.176 134.04 214.206 134.019 214.228 134.005C214.249 133.99 214.271 133.977 214.292 133.963C214.312 133.951 214.347 133.929 214.397 133.901L216.894 138.232Z" fill="#CAB27E" mask="url(#path-48-inside-2_108_2623)" />
<path fill-rule="evenodd" clip-rule="evenodd" d="M305.272 121.565C303.752 126.705 302.881 128.517 296.459 126.943C295.982 127.713 295.56 128.215 295.104 129.173C298.285 131.942 307.62 132.178 307.31 120.882L305.272 121.565Z" fill="#324262" />
<path fill-rule="evenodd" clip-rule="evenodd" d="M217.548 129.173L216.189 126.979C213.916 127.223 212.469 128.322 210.168 126.816C207.673 125.182 208.439 124.561 207.412 121.542L205.428 120.951C205.189 124.784 206.016 127.837 208.642 129.488C211.49 131.279 215.176 131.19 217.548 129.173Z" fill="#324262" />
</svg>